<mxfile host="app.diagrams.net" agent="Mozilla/5.0 (Windows NT 10.0; Win64; x64) AppleWebKit/537.36 (KHTML, like Gecko) Chrome/139.0.0.0 Safari/537.36 Edg/139.0.0.0" version="28.1.2">
  <diagram name="Page-1" id="-3v2lz-b8SU1UT6gvgVv">
    <mxGraphModel dx="1149" dy="671" grid="1" gridSize="10" guides="1" tooltips="1" connect="1" arrows="1" fold="1" page="1" pageScale="1" pageWidth="1100" pageHeight="850" background="none" math="0" shadow="0">
      <root>
        <mxCell id="0" />
        <mxCell id="1" parent="0" />
        <mxCell id="E-xjVL1ue7faHYx-tqoX-3" style="edgeStyle=orthogonalEdgeStyle;rounded=1;orthogonalLoop=1;jettySize=auto;html=1;exitX=0;exitY=0.5;exitDx=0;exitDy=0;labelBackgroundColor=none;fontColor=default;strokeColor=#182E3E;" edge="1" parent="1" source="E-xjVL1ue7faHYx-tqoX-1">
          <mxGeometry relative="1" as="geometry">
            <mxPoint x="210" y="50" as="targetPoint" />
          </mxGeometry>
        </mxCell>
        <mxCell id="E-xjVL1ue7faHYx-tqoX-1" value="STUDENT INFORMATION SYSTEM" style="rounded=1;whiteSpace=wrap;html=1;labelBackgroundColor=none;fillColor=#F5AB50;strokeColor=#909090;fontColor=#1A1A1A;" vertex="1" parent="1">
          <mxGeometry x="180" y="30" width="440" height="50" as="geometry" />
        </mxCell>
        <mxCell id="E-xjVL1ue7faHYx-tqoX-4" value="Admin" style="rounded=1;whiteSpace=wrap;html=1;labelBackgroundColor=none;fillColor=#F5AB50;strokeColor=#909090;fontColor=#1A1A1A;" vertex="1" parent="1">
          <mxGeometry x="40" y="120" width="120" height="50" as="geometry" />
        </mxCell>
        <mxCell id="E-xjVL1ue7faHYx-tqoX-11" value="Manage System Admins" style="rounded=1;whiteSpace=wrap;html=1;labelBackgroundColor=none;fillColor=#F5AB50;strokeColor=#909090;fontColor=#1A1A1A;" vertex="1" parent="1">
          <mxGeometry x="25" y="600" width="150" height="60" as="geometry" />
        </mxCell>
        <mxCell id="E-xjVL1ue7faHYx-tqoX-12" value="Manage Roles of user" style="rounded=1;whiteSpace=wrap;html=1;labelBackgroundColor=none;fillColor=#F5AB50;strokeColor=#909090;fontColor=#1A1A1A;" vertex="1" parent="1">
          <mxGeometry x="220" y="600" width="160" height="60" as="geometry" />
        </mxCell>
        <mxCell id="E-xjVL1ue7faHYx-tqoX-13" value="Manage User permission" style="rounded=1;whiteSpace=wrap;html=1;labelBackgroundColor=none;fillColor=#F5AB50;strokeColor=#909090;fontColor=#1A1A1A;" vertex="1" parent="1">
          <mxGeometry x="417.5" y="600" width="150" height="60" as="geometry" />
        </mxCell>
        <mxCell id="E-xjVL1ue7faHYx-tqoX-14" value="Manage Timetable Details" style="rounded=1;whiteSpace=wrap;html=1;labelBackgroundColor=none;fillColor=#F5AB50;strokeColor=#909090;fontColor=#1A1A1A;" vertex="1" parent="1">
          <mxGeometry x="600" y="115" width="190" height="60" as="geometry" />
        </mxCell>
        <mxCell id="E-xjVL1ue7faHYx-tqoX-15" value="Manage Attendance Details" style="rounded=1;whiteSpace=wrap;html=1;labelBackgroundColor=none;fillColor=#F5AB50;strokeColor=#909090;fontColor=#1A1A1A;" vertex="1" parent="1">
          <mxGeometry x="600" y="200" width="190" height="60" as="geometry" />
        </mxCell>
        <mxCell id="E-xjVL1ue7faHYx-tqoX-16" value="Manage Class Details" style="rounded=1;whiteSpace=wrap;html=1;labelBackgroundColor=none;fillColor=#F5AB50;strokeColor=#909090;fontColor=#1A1A1A;" vertex="1" parent="1">
          <mxGeometry x="600" y="280" width="190" height="60" as="geometry" />
        </mxCell>
        <mxCell id="E-xjVL1ue7faHYx-tqoX-17" value="Manage Student Details" style="rounded=1;whiteSpace=wrap;html=1;labelBackgroundColor=none;fillColor=#F5AB50;strokeColor=#909090;fontColor=#1A1A1A;" vertex="1" parent="1">
          <mxGeometry x="600" y="360" width="190" height="60" as="geometry" />
        </mxCell>
        <mxCell id="E-xjVL1ue7faHYx-tqoX-18" value="Manage Fees Details" style="rounded=1;whiteSpace=wrap;html=1;labelBackgroundColor=none;fillColor=#F5AB50;strokeColor=#909090;fontColor=#1A1A1A;" vertex="1" parent="1">
          <mxGeometry x="600" y="440" width="190" height="60" as="geometry" />
        </mxCell>
        <mxCell id="E-xjVL1ue7faHYx-tqoX-20" value="Forgot password" style="ellipse;whiteSpace=wrap;html=1;aspect=fixed;labelBackgroundColor=none;rounded=1;fillColor=#F5AB50;strokeColor=#909090;fontColor=#1A1A1A;" vertex="1" parent="1">
          <mxGeometry x="50" y="250" width="80" height="80" as="geometry" />
        </mxCell>
        <mxCell id="E-xjVL1ue7faHYx-tqoX-21" value="Send Email to user" style="ellipse;whiteSpace=wrap;html=1;aspect=fixed;labelBackgroundColor=none;rounded=1;fillColor=#F5AB50;strokeColor=#909090;fontColor=#1A1A1A;" vertex="1" parent="1">
          <mxGeometry x="50" y="400" width="80" height="80" as="geometry" />
        </mxCell>
        <mxCell id="E-xjVL1ue7faHYx-tqoX-22" value="Check credentials" style="ellipse;whiteSpace=wrap;html=1;aspect=fixed;labelBackgroundColor=none;rounded=1;fillColor=#F5AB50;strokeColor=#909090;fontColor=#1A1A1A;" vertex="1" parent="1">
          <mxGeometry x="250" y="250" width="80" height="80" as="geometry" />
        </mxCell>
        <mxCell id="E-xjVL1ue7faHYx-tqoX-23" value="Login to system" style="ellipse;whiteSpace=wrap;html=1;aspect=fixed;labelBackgroundColor=none;rounded=1;fillColor=#F5AB50;strokeColor=#909090;fontColor=#1A1A1A;" vertex="1" parent="1">
          <mxGeometry x="250" y="110" width="80" height="80" as="geometry" />
        </mxCell>
        <mxCell id="E-xjVL1ue7faHYx-tqoX-24" value="Check Roles of access" style="ellipse;whiteSpace=wrap;html=1;aspect=fixed;labelBackgroundColor=none;rounded=1;fillColor=#F5AB50;strokeColor=#909090;fontColor=#1A1A1A;" vertex="1" parent="1">
          <mxGeometry x="430" y="108" width="80" height="80" as="geometry" />
        </mxCell>
        <mxCell id="E-xjVL1ue7faHYx-tqoX-25" value="Manage Modules" style="ellipse;whiteSpace=wrap;html=1;aspect=fixed;labelBackgroundColor=none;rounded=1;fillColor=#F5AB50;strokeColor=#909090;fontColor=#1A1A1A;" vertex="1" parent="1">
          <mxGeometry x="430" y="250" width="80" height="80" as="geometry" />
        </mxCell>
        <mxCell id="E-xjVL1ue7faHYx-tqoX-26" value="Manage Teacher Portofolios" style="rounded=1;whiteSpace=wrap;html=1;labelBackgroundColor=none;fillColor=#F5AB50;strokeColor=#909090;fontColor=#1A1A1A;" vertex="1" parent="1">
          <mxGeometry x="600" y="520" width="190" height="60" as="geometry" />
        </mxCell>
        <mxCell id="E-xjVL1ue7faHYx-tqoX-27" value="Manage Reports" style="rounded=1;whiteSpace=wrap;html=1;labelBackgroundColor=none;fillColor=#F5AB50;strokeColor=#909090;fontColor=#1A1A1A;" vertex="1" parent="1">
          <mxGeometry x="600" y="600" width="190" height="60" as="geometry" />
        </mxCell>
        <mxCell id="E-xjVL1ue7faHYx-tqoX-28" value="" style="endArrow=classic;html=1;rounded=0;strokeColor=#182E3E;fontColor=#1A1A1A;entryX=0;entryY=0.75;entryDx=0;entryDy=0;" edge="1" parent="1" target="E-xjVL1ue7faHYx-tqoX-14">
          <mxGeometry width="50" height="50" relative="1" as="geometry">
            <mxPoint x="510" y="280" as="sourcePoint" />
            <mxPoint x="590" y="190" as="targetPoint" />
            <Array as="points">
              <mxPoint x="500" y="260" />
            </Array>
          </mxGeometry>
        </mxCell>
        <mxCell id="E-xjVL1ue7faHYx-tqoX-29" value="" style="endArrow=classic;html=1;rounded=0;strokeColor=#182E3E;fontColor=#1A1A1A;entryX=0;entryY=0.75;entryDx=0;entryDy=0;" edge="1" parent="1" source="E-xjVL1ue7faHYx-tqoX-25" target="E-xjVL1ue7faHYx-tqoX-15">
          <mxGeometry width="50" height="50" relative="1" as="geometry">
            <mxPoint x="560" y="310" as="sourcePoint" />
            <mxPoint x="570" y="310" as="targetPoint" />
          </mxGeometry>
        </mxCell>
        <mxCell id="E-xjVL1ue7faHYx-tqoX-30" value="" style="endArrow=classic;html=1;rounded=0;strokeColor=#182E3E;fontColor=#1A1A1A;exitX=1;exitY=0.625;exitDx=0;exitDy=0;exitPerimeter=0;" edge="1" parent="1" source="E-xjVL1ue7faHYx-tqoX-25" target="E-xjVL1ue7faHYx-tqoX-16">
          <mxGeometry width="50" height="50" relative="1" as="geometry">
            <mxPoint x="500" y="330" as="sourcePoint" />
            <mxPoint x="550" y="280" as="targetPoint" />
          </mxGeometry>
        </mxCell>
        <mxCell id="E-xjVL1ue7faHYx-tqoX-32" value="" style="endArrow=classic;html=1;rounded=0;strokeColor=#182E3E;fontColor=#1A1A1A;exitX=0.73;exitY=0.91;exitDx=0;exitDy=0;exitPerimeter=0;entryX=0;entryY=0.25;entryDx=0;entryDy=0;" edge="1" parent="1" source="E-xjVL1ue7faHYx-tqoX-25" target="E-xjVL1ue7faHYx-tqoX-17">
          <mxGeometry width="50" height="50" relative="1" as="geometry">
            <mxPoint x="490" y="340" as="sourcePoint" />
            <mxPoint x="590" y="380" as="targetPoint" />
          </mxGeometry>
        </mxCell>
        <mxCell id="E-xjVL1ue7faHYx-tqoX-33" value="" style="endArrow=classic;html=1;rounded=0;strokeColor=#182E3E;fontColor=#1A1A1A;exitX=0.69;exitY=1.01;exitDx=0;exitDy=0;exitPerimeter=0;" edge="1" parent="1" source="E-xjVL1ue7faHYx-tqoX-25">
          <mxGeometry width="50" height="50" relative="1" as="geometry">
            <mxPoint x="400" y="380" as="sourcePoint" />
            <mxPoint x="590" y="460" as="targetPoint" />
          </mxGeometry>
        </mxCell>
        <mxCell id="E-xjVL1ue7faHYx-tqoX-34" value="" style="endArrow=classic;html=1;rounded=0;strokeColor=#182E3E;fontColor=#1A1A1A;entryX=0;entryY=0.25;entryDx=0;entryDy=0;" edge="1" parent="1" target="E-xjVL1ue7faHYx-tqoX-26">
          <mxGeometry width="50" height="50" relative="1" as="geometry">
            <mxPoint x="470" y="340" as="sourcePoint" />
            <mxPoint x="450" y="330" as="targetPoint" />
          </mxGeometry>
        </mxCell>
        <mxCell id="E-xjVL1ue7faHYx-tqoX-35" value="" style="endArrow=classic;html=1;rounded=0;strokeColor=#182E3E;fontColor=#1A1A1A;" edge="1" parent="1">
          <mxGeometry width="50" height="50" relative="1" as="geometry">
            <mxPoint x="460" y="340" as="sourcePoint" />
            <mxPoint x="590" y="610" as="targetPoint" />
          </mxGeometry>
        </mxCell>
        <mxCell id="E-xjVL1ue7faHYx-tqoX-36" value="" style="endArrow=classic;html=1;rounded=0;strokeColor=#182E3E;fontColor=#1A1A1A;entryX=0.25;entryY=0;entryDx=0;entryDy=0;exitX=0.313;exitY=1;exitDx=0;exitDy=0;exitPerimeter=0;" edge="1" parent="1" source="E-xjVL1ue7faHYx-tqoX-25" target="E-xjVL1ue7faHYx-tqoX-13">
          <mxGeometry width="50" height="50" relative="1" as="geometry">
            <mxPoint x="450" y="360" as="sourcePoint" />
            <mxPoint x="450" y="330" as="targetPoint" />
          </mxGeometry>
        </mxCell>
        <mxCell id="E-xjVL1ue7faHYx-tqoX-37" value="" style="endArrow=classic;html=1;rounded=0;strokeColor=#182E3E;fontColor=#1A1A1A;" edge="1" parent="1" source="E-xjVL1ue7faHYx-tqoX-25">
          <mxGeometry width="50" height="50" relative="1" as="geometry">
            <mxPoint x="400" y="380" as="sourcePoint" />
            <mxPoint x="310" y="590" as="targetPoint" />
          </mxGeometry>
        </mxCell>
        <mxCell id="E-xjVL1ue7faHYx-tqoX-38" value="" style="endArrow=classic;html=1;rounded=0;strokeColor=#182E3E;fontColor=#1A1A1A;" edge="1" parent="1" source="E-xjVL1ue7faHYx-tqoX-25">
          <mxGeometry width="50" height="50" relative="1" as="geometry">
            <mxPoint x="400" y="380" as="sourcePoint" />
            <mxPoint x="110" y="590" as="targetPoint" />
          </mxGeometry>
        </mxCell>
        <mxCell id="E-xjVL1ue7faHYx-tqoX-39" value="" style="endArrow=classic;html=1;rounded=0;strokeColor=#182E3E;fontColor=#1A1A1A;" edge="1" parent="1" target="E-xjVL1ue7faHYx-tqoX-24">
          <mxGeometry width="50" height="50" relative="1" as="geometry">
            <mxPoint x="320" y="270" as="sourcePoint" />
            <mxPoint x="460" y="230" as="targetPoint" />
          </mxGeometry>
        </mxCell>
        <mxCell id="E-xjVL1ue7faHYx-tqoX-40" value="" style="endArrow=classic;html=1;rounded=0;strokeColor=#182E3E;fontColor=#1A1A1A;" edge="1" parent="1">
          <mxGeometry width="50" height="50" relative="1" as="geometry">
            <mxPoint x="289.5" y="200" as="sourcePoint" />
            <mxPoint x="289.5" y="240" as="targetPoint" />
          </mxGeometry>
        </mxCell>
        <mxCell id="E-xjVL1ue7faHYx-tqoX-42" value="" style="endArrow=classic;html=1;rounded=0;strokeColor=#182E3E;fontColor=#1A1A1A;" edge="1" parent="1">
          <mxGeometry width="50" height="50" relative="1" as="geometry">
            <mxPoint x="90" y="340" as="sourcePoint" />
            <mxPoint x="90" y="390" as="targetPoint" />
          </mxGeometry>
        </mxCell>
        <mxCell id="E-xjVL1ue7faHYx-tqoX-43" value="" style="endArrow=classic;html=1;rounded=0;strokeColor=#182E3E;fontColor=#1A1A1A;" edge="1" parent="1">
          <mxGeometry width="50" height="50" relative="1" as="geometry">
            <mxPoint x="90" y="180" as="sourcePoint" />
            <mxPoint x="90" y="230" as="targetPoint" />
          </mxGeometry>
        </mxCell>
        <mxCell id="E-xjVL1ue7faHYx-tqoX-46" value="" style="endArrow=classic;html=1;rounded=0;strokeColor=#182E3E;fontColor=#1A1A1A;entryX=0;entryY=0.5;entryDx=0;entryDy=0;" edge="1" parent="1" target="E-xjVL1ue7faHYx-tqoX-23">
          <mxGeometry width="50" height="50" relative="1" as="geometry">
            <mxPoint x="170" y="150" as="sourcePoint" />
            <mxPoint x="230" y="70" as="targetPoint" />
          </mxGeometry>
        </mxCell>
      </root>
    </mxGraphModel>
  </diagram>
</mxfile>
